<svg width="277" height="226" viewBox="0 0 277 226" fill="none" xmlns="http://www.w3.org/2000/svg">
<path d="M20.4639 203H19.3018V193.006H24.873V194.038H20.4639V197.695H24.6064V198.728H20.4639V203ZM30.9707 203L30.7451 201.934H30.6904C30.3167 202.403 29.943 202.722 29.5693 202.891C29.2002 203.055 28.7376 203.137 28.1816 203.137C27.4388 203.137 26.8555 202.945 26.4316 202.562C26.0124 202.18 25.8027 201.635 25.8027 200.929C25.8027 199.416 27.0127 198.623 29.4326 198.55L30.7041 198.509V198.044C30.7041 197.456 30.5765 197.023 30.3213 196.745C30.0706 196.463 29.6673 196.321 29.1113 196.321C28.487 196.321 27.7806 196.513 26.9922 196.896L26.6436 196.027C27.0127 195.827 27.416 195.67 27.8535 195.556C28.2956 195.442 28.7376 195.385 29.1797 195.385C30.0729 195.385 30.7337 195.583 31.1621 195.979C31.5951 196.376 31.8115 197.012 31.8115 197.887V203H30.9707ZM28.4072 202.2C29.1136 202.2 29.6673 202.007 30.0684 201.619C30.474 201.232 30.6768 200.689 30.6768 199.992V199.315L29.542 199.363C28.6396 199.395 27.988 199.536 27.5869 199.787C27.1904 200.033 26.9922 200.418 26.9922 200.942C26.9922 201.353 27.1152 201.665 27.3613 201.879C27.612 202.093 27.9606 202.2 28.4072 202.2ZM37.1504 203.137C36.0658 203.137 35.2249 202.804 34.6279 202.139C34.0355 201.469 33.7393 200.523 33.7393 199.302C33.7393 198.049 34.04 197.08 34.6416 196.396C35.2477 195.713 36.109 195.371 37.2256 195.371C37.5856 195.371 37.9456 195.41 38.3057 195.487C38.6657 195.565 38.9482 195.656 39.1533 195.761L38.8047 196.725C38.554 196.624 38.2806 196.542 37.9844 196.479C37.6882 196.41 37.4261 196.376 37.1982 196.376C35.6761 196.376 34.915 197.347 34.915 199.288C34.915 200.209 35.0996 200.915 35.4688 201.407C35.8424 201.899 36.3939 202.146 37.123 202.146C37.7474 202.146 38.3877 202.011 39.0439 201.742V202.747C38.5426 203.007 37.9115 203.137 37.1504 203.137ZM38.1621 204.976C38.1621 205.418 37.9867 205.759 37.6357 206.001C37.2894 206.243 36.7744 206.363 36.0908 206.363C35.8584 206.363 35.6396 206.343 35.4346 206.302V205.577C35.6396 205.614 35.8766 205.632 36.1455 205.632C36.5055 205.632 36.7767 205.586 36.959 205.495C37.1458 205.404 37.2393 205.235 37.2393 204.989C37.2393 204.793 37.1481 204.634 36.9658 204.511C36.7881 204.392 36.4508 204.294 35.9541 204.217L36.5557 203H37.3076L36.9316 203.786C37.752 203.964 38.1621 204.36 38.1621 204.976ZM45.4355 203L45.21 201.934H45.1553C44.7816 202.403 44.4079 202.722 44.0342 202.891C43.665 203.055 43.2025 203.137 42.6465 203.137C41.9036 203.137 41.3203 202.945 40.8965 202.562C40.4772 202.18 40.2676 201.635 40.2676 200.929C40.2676 199.416 41.4775 198.623 43.8975 198.55L45.1689 198.509V198.044C45.1689 197.456 45.0413 197.023 44.7861 196.745C44.5355 196.463 44.1322 196.321 43.5762 196.321C42.9518 196.321 42.2454 196.513 41.457 196.896L41.1084 196.027C41.4775 195.827 41.8809 195.67 42.3184 195.556C42.7604 195.442 43.2025 195.385 43.6445 195.385C44.5378 195.385 45.1986 195.583 45.627 195.979C46.0599 196.376 46.2764 197.012 46.2764 197.887V203H45.4355ZM42.8721 202.2C43.5785 202.2 44.1322 202.007 44.5332 201.619C44.9388 201.232 45.1416 200.689 45.1416 199.992V199.315L44.0068 199.363C43.1045 199.395 42.4528 199.536 42.0518 199.787C41.6553 200.033 41.457 200.418 41.457 200.942C41.457 201.353 41.5801 201.665 41.8262 201.879C42.0768 202.093 42.4255 202.2 42.8721 202.2ZM57.0908 200.956C57.0908 201.653 56.8311 202.191 56.3115 202.569C55.792 202.948 55.0628 203.137 54.124 203.137C53.1305 203.137 52.3558 202.979 51.7998 202.665V201.612C52.1598 201.795 52.5449 201.938 52.9551 202.043C53.3698 202.148 53.7686 202.2 54.1514 202.2C54.7438 202.2 55.1995 202.107 55.5186 201.92C55.8376 201.729 55.9971 201.439 55.9971 201.052C55.9971 200.76 55.8695 200.512 55.6143 200.307C55.3636 200.097 54.8714 199.851 54.1377 199.568C53.4404 199.309 52.9437 199.083 52.6475 198.892C52.3558 198.696 52.137 198.475 51.9912 198.229C51.8499 197.982 51.7793 197.688 51.7793 197.347C51.7793 196.736 52.0277 196.255 52.5244 195.904C53.0212 195.549 53.7025 195.371 54.5684 195.371C55.375 195.371 56.1634 195.535 56.9336 195.863L56.5303 196.786C55.7783 196.476 55.097 196.321 54.4863 196.321C53.9486 196.321 53.543 196.406 53.2695 196.574C52.9961 196.743 52.8594 196.975 52.8594 197.271C52.8594 197.472 52.9095 197.643 53.0098 197.784C53.1146 197.925 53.2809 198.06 53.5088 198.188C53.7367 198.315 54.1742 198.5 54.8213 198.741C55.71 199.065 56.3092 199.391 56.6191 199.719C56.9336 200.047 57.0908 200.459 57.0908 200.956ZM60.0098 195.508V200.368C60.0098 200.979 60.1488 201.435 60.4268 201.735C60.7048 202.036 61.14 202.187 61.7324 202.187C62.5163 202.187 63.0882 201.972 63.4482 201.544C63.8128 201.116 63.9951 200.416 63.9951 199.445V195.508H65.1299V203H64.1934L64.0293 201.995H63.9678C63.7354 202.364 63.4118 202.647 62.9971 202.843C62.5869 203.039 62.1175 203.137 61.5889 203.137C60.6774 203.137 59.9938 202.92 59.5381 202.487C59.0869 202.054 58.8613 201.362 58.8613 200.409V195.508H60.0098ZM72.1504 203L71.9248 201.934H71.8701C71.4964 202.403 71.1227 202.722 70.749 202.891C70.3799 203.055 69.9173 203.137 69.3613 203.137C68.6185 203.137 68.0352 202.945 67.6113 202.562C67.1921 202.18 66.9824 201.635 66.9824 200.929C66.9824 199.416 68.1924 198.623 70.6123 198.55L71.8838 198.509V198.044C71.8838 197.456 71.7562 197.023 71.501 196.745C71.2503 196.463 70.847 196.321 70.291 196.321C69.6667 196.321 68.9603 196.513 68.1719 196.896L67.8232 196.027C68.1924 195.827 68.5957 195.67 69.0332 195.556C69.4753 195.442 69.9173 195.385 70.3594 195.385C71.2526 195.385 71.9134 195.583 72.3418 195.979C72.7747 196.376 72.9912 197.012 72.9912 197.887V203H72.1504ZM69.5869 202.2C70.2933 202.2 70.847 202.007 71.248 201.619C71.6536 201.232 71.8564 200.689 71.8564 199.992V199.315L70.7217 199.363C69.8193 199.395 69.1676 199.536 68.7666 199.787C68.3701 200.033 68.1719 200.418 68.1719 200.942C68.1719 201.353 68.2949 201.665 68.541 201.879C68.7917 202.093 69.1403 202.2 69.5869 202.2ZM82.459 203.137C81.9714 203.137 81.5247 203.048 81.1191 202.87C80.7181 202.688 80.3809 202.41 80.1074 202.036H80.0254C80.0801 202.474 80.1074 202.888 80.1074 203.28V206.363H78.9727V195.508H79.8955L80.0527 196.533H80.1074C80.3991 196.123 80.7386 195.827 81.126 195.645C81.5133 195.462 81.9577 195.371 82.459 195.371C83.4525 195.371 84.2181 195.711 84.7559 196.39C85.2982 197.069 85.5693 198.021 85.5693 199.247C85.5693 200.478 85.2936 201.435 84.7422 202.118C84.1953 202.797 83.4342 203.137 82.459 203.137ZM82.2949 196.335C81.5293 196.335 80.9756 196.547 80.6338 196.971C80.292 197.395 80.1165 198.069 80.1074 198.994V199.247C80.1074 200.3 80.2829 201.054 80.6338 201.51C80.9847 201.961 81.5475 202.187 82.3223 202.187C82.9694 202.187 83.4753 201.924 83.8398 201.4C84.209 200.876 84.3936 200.154 84.3936 199.233C84.3936 198.299 84.209 197.584 83.8398 197.087C83.4753 196.586 82.9603 196.335 82.2949 196.335ZM90.9766 195.371C91.3092 195.371 91.6077 195.398 91.8721 195.453L91.7148 196.506C91.4049 196.438 91.1315 196.403 90.8945 196.403C90.2884 196.403 89.7689 196.649 89.3359 197.142C88.9076 197.634 88.6934 198.247 88.6934 198.98V203H87.5586V195.508H88.4951L88.625 196.896H88.6797C88.9577 196.408 89.2926 196.032 89.6846 195.768C90.0765 195.503 90.5072 195.371 90.9766 195.371ZM94.4082 203H93.2734V195.508H94.4082V203ZM93.1777 193.478C93.1777 193.218 93.2415 193.029 93.3691 192.91C93.4967 192.787 93.6562 192.726 93.8477 192.726C94.0299 192.726 94.1872 192.787 94.3193 192.91C94.4515 193.033 94.5176 193.222 94.5176 193.478C94.5176 193.733 94.4515 193.924 94.3193 194.052C94.1872 194.175 94.0299 194.236 93.8477 194.236C93.6562 194.236 93.4967 194.175 93.3691 194.052C93.2415 193.924 93.1777 193.733 93.1777 193.478ZM106.364 203V198.126C106.364 197.529 106.237 197.082 105.981 196.786C105.726 196.485 105.33 196.335 104.792 196.335C104.086 196.335 103.564 196.538 103.227 196.943C102.889 197.349 102.721 197.973 102.721 198.816V203H101.586V198.126C101.586 197.529 101.458 197.082 101.203 196.786C100.948 196.485 100.549 196.335 100.007 196.335C99.2959 196.335 98.7741 196.549 98.4414 196.978C98.1133 197.401 97.9492 198.099 97.9492 199.069V203H96.8145V195.508H97.7373L97.9219 196.533H97.9766C98.1908 196.169 98.4915 195.884 98.8789 195.679C99.2708 195.474 99.7083 195.371 100.191 195.371C101.363 195.371 102.128 195.795 102.488 196.643H102.543C102.766 196.251 103.09 195.941 103.514 195.713C103.938 195.485 104.421 195.371 104.963 195.371C105.811 195.371 106.444 195.59 106.863 196.027C107.287 196.46 107.499 197.155 107.499 198.112V203H106.364ZM113.009 203.137C111.901 203.137 111.026 202.799 110.384 202.125C109.746 201.451 109.427 200.514 109.427 199.315C109.427 198.108 109.723 197.148 110.315 196.438C110.912 195.727 111.712 195.371 112.715 195.371C113.654 195.371 114.396 195.681 114.943 196.301C115.49 196.916 115.764 197.729 115.764 198.741V199.459H110.603C110.625 200.339 110.846 201.006 111.266 201.462C111.689 201.918 112.284 202.146 113.05 202.146C113.856 202.146 114.654 201.977 115.442 201.64V202.651C115.041 202.825 114.661 202.948 114.301 203.021C113.945 203.098 113.515 203.137 113.009 203.137ZM112.701 196.321C112.1 196.321 111.619 196.517 111.259 196.909C110.903 197.301 110.694 197.843 110.63 198.536H114.547C114.547 197.821 114.387 197.274 114.068 196.896C113.749 196.513 113.294 196.321 112.701 196.321ZM118.84 203H117.705V195.508H118.84V203ZM117.609 193.478C117.609 193.218 117.673 193.029 117.801 192.91C117.928 192.787 118.088 192.726 118.279 192.726C118.462 192.726 118.619 192.787 118.751 192.91C118.883 193.033 118.949 193.222 118.949 193.478C118.949 193.733 118.883 193.924 118.751 194.052C118.619 194.175 118.462 194.236 118.279 194.236C118.088 194.236 117.928 194.175 117.801 194.052C117.673 193.924 117.609 193.733 117.609 193.478ZM124.664 195.371C124.997 195.371 125.295 195.398 125.56 195.453L125.402 196.506C125.092 196.438 124.819 196.403 124.582 196.403C123.976 196.403 123.456 196.649 123.023 197.142C122.595 197.634 122.381 198.247 122.381 198.98V203H121.246V195.508H122.183L122.312 196.896H122.367C122.645 196.408 122.98 196.032 123.372 195.768C123.764 195.503 124.195 195.371 124.664 195.371ZM131.568 203L131.343 201.934H131.288C130.914 202.403 130.541 202.722 130.167 202.891C129.798 203.055 129.335 203.137 128.779 203.137C128.036 203.137 127.453 202.945 127.029 202.562C126.61 202.18 126.4 201.635 126.4 200.929C126.4 199.416 127.61 198.623 130.03 198.55L131.302 198.509V198.044C131.302 197.456 131.174 197.023 130.919 196.745C130.668 196.463 130.265 196.321 129.709 196.321C129.085 196.321 128.378 196.513 127.59 196.896L127.241 196.027C127.61 195.827 128.014 195.67 128.451 195.556C128.893 195.442 129.335 195.385 129.777 195.385C130.671 195.385 131.331 195.583 131.76 195.979C132.193 196.376 132.409 197.012 132.409 197.887V203H131.568ZM129.005 202.2C129.711 202.2 130.265 202.007 130.666 201.619C131.072 201.232 131.274 200.689 131.274 199.992V199.315L130.14 199.363C129.237 199.395 128.586 199.536 128.185 199.787C127.788 200.033 127.59 200.418 127.59 200.942C127.59 201.353 127.713 201.665 127.959 201.879C128.21 202.093 128.558 202.2 129.005 202.2ZM141.877 203.137C141.389 203.137 140.943 203.048 140.537 202.87C140.136 202.688 139.799 202.41 139.525 202.036H139.443C139.498 202.474 139.525 202.888 139.525 203.28V206.363H138.391V195.508H139.313L139.471 196.533H139.525C139.817 196.123 140.157 195.827 140.544 195.645C140.931 195.462 141.376 195.371 141.877 195.371C142.87 195.371 143.636 195.711 144.174 196.39C144.716 197.069 144.987 198.021 144.987 199.247C144.987 200.478 144.712 201.435 144.16 202.118C143.613 202.797 142.852 203.137 141.877 203.137ZM141.713 196.335C140.947 196.335 140.394 196.547 140.052 196.971C139.71 197.395 139.535 198.069 139.525 198.994V199.247C139.525 200.3 139.701 201.054 140.052 201.51C140.403 201.961 140.965 202.187 141.74 202.187C142.387 202.187 142.893 201.924 143.258 201.4C143.627 200.876 143.812 200.154 143.812 199.233C143.812 198.299 143.627 197.584 143.258 197.087C142.893 196.586 142.378 196.335 141.713 196.335ZM150.142 203.137C149.034 203.137 148.159 202.799 147.517 202.125C146.879 201.451 146.56 200.514 146.56 199.315C146.56 198.108 146.856 197.148 147.448 196.438C148.045 195.727 148.845 195.371 149.848 195.371C150.786 195.371 151.529 195.681 152.076 196.301C152.623 196.916 152.896 197.729 152.896 198.741V199.459H147.735C147.758 200.339 147.979 201.006 148.398 201.462C148.822 201.918 149.417 202.146 150.183 202.146C150.989 202.146 151.787 201.977 152.575 201.64V202.651C152.174 202.825 151.794 202.948 151.434 203.021C151.078 203.098 150.647 203.137 150.142 203.137ZM149.834 196.321C149.232 196.321 148.752 196.517 148.392 196.909C148.036 197.301 147.826 197.843 147.763 198.536H151.68C151.68 197.821 151.52 197.274 151.201 196.896C150.882 196.513 150.426 196.321 149.834 196.321ZM158.256 195.371C158.589 195.371 158.887 195.398 159.151 195.453L158.994 196.506C158.684 196.438 158.411 196.403 158.174 196.403C157.568 196.403 157.048 196.649 156.615 197.142C156.187 197.634 155.973 198.247 155.973 198.98V203H154.838V195.508H155.774L155.904 196.896H155.959C156.237 196.408 156.572 196.032 156.964 195.768C157.356 195.503 157.786 195.371 158.256 195.371ZM166.685 195.508V196.226L165.297 196.39C165.424 196.549 165.538 196.759 165.639 197.019C165.739 197.274 165.789 197.563 165.789 197.887C165.789 198.62 165.538 199.206 165.037 199.644C164.536 200.081 163.848 200.3 162.973 200.3C162.749 200.3 162.54 200.282 162.344 200.245C161.861 200.5 161.619 200.822 161.619 201.209C161.619 201.414 161.703 201.567 161.872 201.667C162.041 201.763 162.33 201.811 162.74 201.811H164.066C164.878 201.811 165.5 201.981 165.933 202.323C166.37 202.665 166.589 203.162 166.589 203.813C166.589 204.643 166.256 205.274 165.591 205.707C164.925 206.145 163.955 206.363 162.679 206.363C161.699 206.363 160.942 206.181 160.409 205.816C159.881 205.452 159.616 204.937 159.616 204.271C159.616 203.816 159.762 203.422 160.054 203.089C160.345 202.756 160.756 202.531 161.284 202.412C161.093 202.326 160.931 202.191 160.799 202.009C160.671 201.826 160.607 201.615 160.607 201.373C160.607 201.1 160.68 200.86 160.826 200.655C160.972 200.45 161.202 200.252 161.517 200.061C161.129 199.901 160.812 199.63 160.566 199.247C160.325 198.864 160.204 198.427 160.204 197.935C160.204 197.114 160.45 196.483 160.942 196.041C161.435 195.594 162.132 195.371 163.034 195.371C163.426 195.371 163.779 195.417 164.094 195.508H166.685ZM160.71 204.258C160.71 204.663 160.881 204.971 161.223 205.181C161.564 205.39 162.054 205.495 162.692 205.495C163.645 205.495 164.349 205.352 164.805 205.064C165.265 204.782 165.495 204.397 165.495 203.909C165.495 203.504 165.37 203.221 165.119 203.062C164.868 202.907 164.397 202.829 163.704 202.829H162.344C161.829 202.829 161.428 202.952 161.141 203.198C160.854 203.444 160.71 203.798 160.71 204.258ZM161.325 197.907C161.325 198.431 161.473 198.828 161.77 199.097C162.066 199.366 162.478 199.5 163.007 199.5C164.114 199.5 164.668 198.962 164.668 197.887C164.668 196.761 164.107 196.198 162.986 196.198C162.453 196.198 162.043 196.342 161.756 196.629C161.469 196.916 161.325 197.342 161.325 197.907ZM169.289 195.508V200.368C169.289 200.979 169.428 201.435 169.706 201.735C169.984 202.036 170.419 202.187 171.012 202.187C171.796 202.187 172.368 201.972 172.728 201.544C173.092 201.116 173.274 200.416 173.274 199.445V195.508H174.409V203H173.473L173.309 201.995H173.247C173.015 202.364 172.691 202.647 172.276 202.843C171.866 203.039 171.397 203.137 170.868 203.137C169.957 203.137 169.273 202.92 168.817 202.487C168.366 202.054 168.141 201.362 168.141 200.409V195.508H169.289ZM181.949 203V198.153C181.949 197.543 181.81 197.087 181.532 196.786C181.254 196.485 180.819 196.335 180.227 196.335C179.443 196.335 178.868 196.547 178.504 196.971C178.139 197.395 177.957 198.094 177.957 199.069V203H176.822V195.508H177.745L177.93 196.533H177.984C178.217 196.164 178.543 195.879 178.962 195.679C179.381 195.474 179.848 195.371 180.363 195.371C181.266 195.371 181.945 195.59 182.4 196.027C182.856 196.46 183.084 197.155 183.084 198.112V203H181.949ZM187.842 202.2C188.042 202.2 188.236 202.187 188.423 202.159C188.61 202.127 188.758 202.095 188.867 202.063V202.932C188.744 202.991 188.562 203.039 188.32 203.075C188.083 203.116 187.869 203.137 187.678 203.137C186.229 203.137 185.504 202.373 185.504 200.847V196.39H184.431V195.843L185.504 195.371L185.982 193.771H186.639V195.508H188.812V196.39H186.639V200.799C186.639 201.25 186.746 201.596 186.96 201.838C187.174 202.079 187.468 202.2 187.842 202.2ZM194.979 203L194.753 201.934H194.698C194.325 202.403 193.951 202.722 193.577 202.891C193.208 203.055 192.745 203.137 192.189 203.137C191.447 203.137 190.863 202.945 190.439 202.562C190.02 202.18 189.811 201.635 189.811 200.929C189.811 199.416 191.021 198.623 193.44 198.55L194.712 198.509V198.044C194.712 197.456 194.584 197.023 194.329 196.745C194.078 196.463 193.675 196.321 193.119 196.321C192.495 196.321 191.788 196.513 191 196.896L190.651 196.027C191.021 195.827 191.424 195.67 191.861 195.556C192.303 195.442 192.745 195.385 193.188 195.385C194.081 195.385 194.742 195.583 195.17 195.979C195.603 196.376 195.819 197.012 195.819 197.887V203H194.979ZM192.415 202.2C193.121 202.2 193.675 202.007 194.076 201.619C194.482 201.232 194.685 200.689 194.685 199.992V199.315L193.55 199.363C192.647 199.395 191.996 199.536 191.595 199.787C191.198 200.033 191 200.418 191 200.942C191 201.353 191.123 201.665 191.369 201.879C191.62 202.093 191.968 202.2 192.415 202.2ZM204.966 203.137C203.858 203.137 202.983 202.799 202.341 202.125C201.703 201.451 201.384 200.514 201.384 199.315C201.384 198.108 201.68 197.148 202.272 196.438C202.869 195.727 203.669 195.371 204.672 195.371C205.611 195.371 206.354 195.681 206.9 196.301C207.447 196.916 207.721 197.729 207.721 198.741V199.459H202.56C202.582 200.339 202.803 201.006 203.223 201.462C203.646 201.918 204.241 202.146 205.007 202.146C205.813 202.146 206.611 201.977 207.399 201.64V202.651C206.998 202.825 206.618 202.948 206.258 203.021C205.902 203.098 205.472 203.137 204.966 203.137ZM204.658 196.321C204.057 196.321 203.576 196.517 203.216 196.909C202.86 197.301 202.651 197.843 202.587 198.536H206.504C206.504 197.821 206.344 197.274 206.025 196.896C205.706 196.513 205.251 196.321 204.658 196.321ZM216.464 203.137C215.356 203.137 214.481 202.799 213.839 202.125C213.201 201.451 212.882 200.514 212.882 199.315C212.882 198.108 213.178 197.148 213.771 196.438C214.368 195.727 215.167 195.371 216.17 195.371C217.109 195.371 217.852 195.681 218.398 196.301C218.945 196.916 219.219 197.729 219.219 198.741V199.459H214.058C214.08 200.339 214.301 201.006 214.721 201.462C215.145 201.918 215.739 202.146 216.505 202.146C217.312 202.146 218.109 201.977 218.897 201.64V202.651C218.496 202.825 218.116 202.948 217.756 203.021C217.4 203.098 216.97 203.137 216.464 203.137ZM216.156 196.321C215.555 196.321 215.074 196.517 214.714 196.909C214.358 197.301 214.149 197.843 214.085 198.536H218.002C218.002 197.821 217.842 197.274 217.523 196.896C217.204 196.513 216.749 196.321 216.156 196.321ZM226.287 203V198.153C226.287 197.543 226.148 197.087 225.87 196.786C225.592 196.485 225.157 196.335 224.564 196.335C223.781 196.335 223.206 196.547 222.842 196.971C222.477 197.395 222.295 198.094 222.295 199.069V203H221.16V195.508H222.083L222.268 196.533H222.322C222.555 196.164 222.881 195.879 223.3 195.679C223.719 195.474 224.186 195.371 224.701 195.371C225.604 195.371 226.283 195.59 226.738 196.027C227.194 196.46 227.422 197.155 227.422 198.112V203H226.287ZM231.4 203L228.557 195.508H229.773L231.387 199.951C231.751 200.99 231.965 201.665 232.029 201.975H232.084C232.134 201.733 232.291 201.234 232.556 200.478C232.825 199.716 233.424 198.06 234.354 195.508H235.57L232.727 203H231.4ZM237.908 203H236.773V195.508H237.908V203ZM236.678 193.478C236.678 193.218 236.742 193.029 236.869 192.91C236.997 192.787 237.156 192.726 237.348 192.726C237.53 192.726 237.687 192.787 237.819 192.91C237.951 193.033 238.018 193.222 238.018 193.478C238.018 193.733 237.951 193.924 237.819 194.052C237.687 194.175 237.53 194.236 237.348 194.236C237.156 194.236 236.997 194.175 236.869 194.052C236.742 193.924 236.678 193.733 236.678 193.478ZM243.479 203.137C242.372 203.137 241.497 202.799 240.854 202.125C240.216 201.451 239.897 200.514 239.897 199.315C239.897 198.108 240.194 197.148 240.786 196.438C241.383 195.727 242.183 195.371 243.186 195.371C244.124 195.371 244.867 195.681 245.414 196.301C245.961 196.916 246.234 197.729 246.234 198.741V199.459H241.073C241.096 200.339 241.317 201.006 241.736 201.462C242.16 201.918 242.755 202.146 243.521 202.146C244.327 202.146 245.125 201.977 245.913 201.64V202.651C245.512 202.825 245.132 202.948 244.771 203.021C244.416 203.098 243.985 203.137 243.479 203.137ZM243.172 196.321C242.57 196.321 242.09 196.517 241.729 196.909C241.374 197.301 241.164 197.843 241.101 198.536H245.018C245.018 197.821 244.858 197.274 244.539 196.896C244.22 196.513 243.764 196.321 243.172 196.321ZM258.279 199.247C258.279 200.468 257.972 201.423 257.356 202.111C256.741 202.795 255.891 203.137 254.807 203.137C254.137 203.137 253.542 202.979 253.022 202.665C252.503 202.351 252.102 201.899 251.819 201.312C251.537 200.724 251.396 200.035 251.396 199.247C251.396 198.026 251.701 197.076 252.312 196.396C252.922 195.713 253.77 195.371 254.854 195.371C255.903 195.371 256.734 195.72 257.35 196.417C257.969 197.114 258.279 198.058 258.279 199.247ZM252.571 199.247C252.571 200.204 252.763 200.933 253.146 201.435C253.528 201.936 254.091 202.187 254.834 202.187C255.577 202.187 256.14 201.938 256.522 201.441C256.91 200.94 257.104 200.209 257.104 199.247C257.104 198.295 256.91 197.572 256.522 197.08C256.14 196.583 255.572 196.335 254.82 196.335C254.077 196.335 253.517 196.579 253.139 197.066C252.76 197.554 252.571 198.281 252.571 199.247ZM15.8975 222.137C14.8128 222.137 13.972 221.804 13.375 221.139C12.7826 220.469 12.4863 219.523 12.4863 218.302C12.4863 217.049 12.7871 216.08 13.3887 215.396C13.9948 214.713 14.8561 214.371 15.9727 214.371C16.3327 214.371 16.6927 214.41 17.0527 214.487C17.4128 214.565 17.6953 214.656 17.9004 214.761L17.5518 215.725C17.3011 215.624 17.0277 215.542 16.7314 215.479C16.4352 215.41 16.1732 215.376 15.9453 215.376C14.4232 215.376 13.6621 216.347 13.6621 218.288C13.6621 219.209 13.8467 219.915 14.2158 220.407C14.5895 220.899 15.141 221.146 15.8701 221.146C16.4945 221.146 17.1348 221.011 17.791 220.742V221.747C17.2897 222.007 16.6585 222.137 15.8975 222.137ZM26.042 218.247C26.042 219.468 25.7344 220.423 25.1191 221.111C24.5039 221.795 23.654 222.137 22.5693 222.137C21.8994 222.137 21.3047 221.979 20.7852 221.665C20.2656 221.351 19.8646 220.899 19.582 220.312C19.2995 219.724 19.1582 219.035 19.1582 218.247C19.1582 217.026 19.4635 216.076 20.0742 215.396C20.6849 214.713 21.5326 214.371 22.6172 214.371C23.6654 214.371 24.4971 214.72 25.1123 215.417C25.7321 216.114 26.042 217.058 26.042 218.247ZM20.334 218.247C20.334 219.204 20.5254 219.933 20.9082 220.435C21.291 220.936 21.8538 221.187 22.5967 221.187C23.3395 221.187 23.9023 220.938 24.2852 220.441C24.6725 219.94 24.8662 219.209 24.8662 218.247C24.8662 217.295 24.6725 216.572 24.2852 216.08C23.9023 215.583 23.335 215.335 22.583 215.335C21.8402 215.335 21.2796 215.579 20.9014 216.066C20.5231 216.554 20.334 217.281 20.334 218.247ZM21.6465 213.346C21.8652 213.063 22.0999 212.721 22.3506 212.32C22.6058 211.919 22.8063 211.571 22.9521 211.274H24.333V211.418C24.1325 211.714 23.834 212.079 23.4375 212.512C23.041 212.945 22.6969 213.28 22.4053 213.517H21.6465V213.346ZM33.1377 220.995H33.0762C32.5521 221.756 31.7682 222.137 30.7246 222.137C29.7448 222.137 28.9814 221.802 28.4346 221.132C27.8923 220.462 27.6211 219.509 27.6211 218.274C27.6211 217.039 27.8945 216.08 28.4414 215.396C28.9883 214.713 29.7493 214.371 30.7246 214.371C31.7409 214.371 32.5202 214.74 33.0625 215.479H33.1514L33.1035 214.938L33.0762 214.412V211.363H34.2109V222H33.2881L33.1377 220.995ZM30.8682 221.187C31.6429 221.187 32.2035 220.977 32.5498 220.558C32.9007 220.134 33.0762 219.452 33.0762 218.514V218.274C33.0762 217.213 32.8984 216.456 32.543 216.005C32.1921 215.549 31.6292 215.321 30.8545 215.321C30.1891 215.321 29.6787 215.581 29.3232 216.101C28.9723 216.616 28.7969 217.345 28.7969 218.288C28.7969 219.245 28.9723 219.967 29.3232 220.455C29.6742 220.943 30.1891 221.187 30.8682 221.187ZM37.7588 222H36.624V214.508H37.7588V222ZM36.5283 212.478C36.5283 212.218 36.5921 212.029 36.7197 211.91C36.8473 211.787 37.0068 211.726 37.1982 211.726C37.3805 211.726 37.5378 211.787 37.6699 211.91C37.8021 212.033 37.8682 212.222 37.8682 212.478C37.8682 212.733 37.8021 212.924 37.6699 213.052C37.5378 213.175 37.3805 213.236 37.1982 213.236C37.0068 213.236 36.8473 213.175 36.7197 213.052C36.5921 212.924 36.5283 212.733 36.5283 212.478ZM46.2969 214.508V215.226L44.9092 215.39C45.0368 215.549 45.1507 215.759 45.251 216.019C45.3512 216.274 45.4014 216.563 45.4014 216.887C45.4014 217.62 45.1507 218.206 44.6494 218.644C44.1481 219.081 43.46 219.3 42.585 219.3C42.3617 219.3 42.152 219.282 41.9561 219.245C41.473 219.5 41.2314 219.822 41.2314 220.209C41.2314 220.414 41.3158 220.567 41.4844 220.667C41.653 220.763 41.9424 220.811 42.3525 220.811H43.6787C44.4899 220.811 45.112 220.981 45.5449 221.323C45.9824 221.665 46.2012 222.162 46.2012 222.813C46.2012 223.643 45.8685 224.274 45.2031 224.707C44.5378 225.145 43.5671 225.363 42.291 225.363C41.3112 225.363 40.5547 225.181 40.0215 224.816C39.4928 224.452 39.2285 223.937 39.2285 223.271C39.2285 222.816 39.3743 222.422 39.666 222.089C39.9577 221.756 40.3678 221.531 40.8965 221.412C40.7051 221.326 40.5433 221.191 40.4111 221.009C40.2835 220.826 40.2197 220.615 40.2197 220.373C40.2197 220.1 40.2926 219.86 40.4385 219.655C40.5843 219.45 40.8145 219.252 41.1289 219.061C40.7415 218.901 40.4248 218.63 40.1787 218.247C39.9372 217.864 39.8164 217.427 39.8164 216.935C39.8164 216.114 40.0625 215.483 40.5547 215.041C41.0469 214.594 41.7441 214.371 42.6465 214.371C43.0384 214.371 43.3916 214.417 43.7061 214.508H46.2969ZM40.3223 223.258C40.3223 223.663 40.4932 223.971 40.835 224.181C41.1768 224.39 41.6667 224.495 42.3047 224.495C43.2572 224.495 43.9613 224.352 44.417 224.064C44.8773 223.782 45.1074 223.397 45.1074 222.909C45.1074 222.504 44.9821 222.221 44.7314 222.062C44.4808 221.907 44.0091 221.829 43.3164 221.829H41.9561C41.4411 221.829 41.04 221.952 40.7529 222.198C40.4658 222.444 40.3223 222.798 40.3223 223.258ZM40.9375 216.907C40.9375 217.431 41.0856 217.828 41.3818 218.097C41.6781 218.366 42.0905 218.5 42.6191 218.5C43.7266 218.5 44.2803 217.962 44.2803 216.887C44.2803 215.761 43.7197 215.198 42.5986 215.198C42.0654 215.198 41.6553 215.342 41.3682 215.629C41.0811 215.916 40.9375 216.342 40.9375 216.907ZM54.3018 218.247C54.3018 219.468 53.9941 220.423 53.3789 221.111C52.7637 221.795 51.9137 222.137 50.8291 222.137C50.1592 222.137 49.5645 221.979 49.0449 221.665C48.5254 221.351 48.1243 220.899 47.8418 220.312C47.5592 219.724 47.418 219.035 47.418 218.247C47.418 217.026 47.7233 216.076 48.334 215.396C48.9447 214.713 49.7923 214.371 50.877 214.371C51.9251 214.371 52.7568 214.72 53.3721 215.417C53.9919 216.114 54.3018 217.058 54.3018 218.247ZM48.5938 218.247C48.5938 219.204 48.7852 219.933 49.168 220.435C49.5508 220.936 50.1136 221.187 50.8564 221.187C51.5993 221.187 52.1621 220.938 52.5449 220.441C52.9323 219.94 53.126 219.209 53.126 218.247C53.126 217.295 52.9323 216.572 52.5449 216.08C52.1621 215.583 51.5947 215.335 50.8428 215.335C50.0999 215.335 49.5394 215.579 49.1611 216.066C48.7829 216.554 48.5938 217.281 48.5938 218.247ZM65.0342 220.995H64.9727C64.4486 221.756 63.6647 222.137 62.6211 222.137C61.6413 222.137 60.8779 221.802 60.3311 221.132C59.7887 220.462 59.5176 219.509 59.5176 218.274C59.5176 217.039 59.791 216.08 60.3379 215.396C60.8848 214.713 61.6458 214.371 62.6211 214.371C63.6374 214.371 64.4167 214.74 64.959 215.479H65.0479L65 214.938L64.9727 214.412V211.363H66.1074V222H65.1846L65.0342 220.995ZM62.7646 221.187C63.5394 221.187 64.0999 220.977 64.4463 220.558C64.7972 220.134 64.9727 219.452 64.9727 218.514V218.274C64.9727 217.213 64.7949 216.456 64.4395 216.005C64.0885 215.549 63.5257 215.321 62.751 215.321C62.0856 215.321 61.5752 215.581 61.2197 216.101C60.8688 216.616 60.6934 217.345 60.6934 218.288C60.6934 219.245 60.8688 219.967 61.2197 220.455C61.5706 220.943 62.0856 221.187 62.7646 221.187ZM71.6855 222.137C70.5781 222.137 69.7031 221.799 69.0605 221.125C68.4225 220.451 68.1035 219.514 68.1035 218.315C68.1035 217.108 68.3997 216.148 68.9922 215.438C69.5892 214.727 70.389 214.371 71.3916 214.371C72.3304 214.371 73.0732 214.681 73.6201 215.301C74.167 215.916 74.4404 216.729 74.4404 217.741V218.459H69.2793C69.3021 219.339 69.5231 220.006 69.9424 220.462C70.3662 220.918 70.9609 221.146 71.7266 221.146C72.5332 221.146 73.3307 220.977 74.1191 220.64V221.651C73.7181 221.825 73.3376 221.948 72.9775 222.021C72.6221 222.098 72.1914 222.137 71.6855 222.137ZM71.3779 215.321C70.7764 215.321 70.2956 215.517 69.9355 215.909C69.5801 216.301 69.3704 216.843 69.3066 217.536H73.2236C73.2236 216.821 73.0641 216.274 72.7451 215.896C72.4261 215.513 71.9704 215.321 71.3779 215.321ZM81.2148 219.956C81.2148 220.653 80.9551 221.191 80.4355 221.569C79.916 221.948 79.1868 222.137 78.248 222.137C77.2546 222.137 76.4798 221.979 75.9238 221.665V220.612C76.2839 220.795 76.6689 220.938 77.0791 221.043C77.4938 221.148 77.8926 221.2 78.2754 221.2C78.8678 221.2 79.3236 221.107 79.6426 220.92C79.9616 220.729 80.1211 220.439 80.1211 220.052C80.1211 219.76 79.9935 219.512 79.7383 219.307C79.4876 219.097 78.9954 218.851 78.2617 218.568C77.5645 218.309 77.0677 218.083 76.7715 217.892C76.4798 217.696 76.2611 217.475 76.1152 217.229C75.974 216.982 75.9033 216.688 75.9033 216.347C75.9033 215.736 76.1517 215.255 76.6484 214.904C77.1452 214.549 77.8265 214.371 78.6924 214.371C79.499 214.371 80.2874 214.535 81.0576 214.863L80.6543 215.786C79.9023 215.476 79.221 215.321 78.6104 215.321C78.0726 215.321 77.667 215.406 77.3936 215.574C77.1201 215.743 76.9834 215.975 76.9834 216.271C76.9834 216.472 77.0335 216.643 77.1338 216.784C77.2386 216.925 77.4049 217.06 77.6328 217.188C77.8607 217.315 78.2982 217.5 78.9453 217.741C79.834 218.065 80.4333 218.391 80.7432 218.719C81.0576 219.047 81.2148 219.459 81.2148 219.956ZM87.9004 219.956C87.9004 220.653 87.6406 221.191 87.1211 221.569C86.6016 221.948 85.8724 222.137 84.9336 222.137C83.9401 222.137 83.1654 221.979 82.6094 221.665V220.612C82.9694 220.795 83.3545 220.938 83.7646 221.043C84.1794 221.148 84.5781 221.2 84.9609 221.2C85.5534 221.2 86.0091 221.107 86.3281 220.92C86.6471 220.729 86.8066 220.439 86.8066 220.052C86.8066 219.76 86.679 219.512 86.4238 219.307C86.1732 219.097 85.681 218.851 84.9473 218.568C84.25 218.309 83.7533 218.083 83.457 217.892C83.1654 217.696 82.9466 217.475 82.8008 217.229C82.6595 216.982 82.5889 216.688 82.5889 216.347C82.5889 215.736 82.8372 215.255 83.334 214.904C83.8307 214.549 84.512 214.371 85.3779 214.371C86.1846 214.371 86.973 214.535 87.7432 214.863L87.3398 215.786C86.5879 215.476 85.9066 215.321 85.2959 215.321C84.7581 215.321 84.3525 215.406 84.0791 215.574C83.8057 215.743 83.6689 215.975 83.6689 216.271C83.6689 216.472 83.7191 216.643 83.8193 216.784C83.9242 216.925 84.0905 217.06 84.3184 217.188C84.5462 217.315 84.9837 217.5 85.6309 217.741C86.5195 218.065 87.1188 218.391 87.4287 218.719C87.7432 219.047 87.9004 219.459 87.9004 219.956ZM94.3604 222L94.1348 220.934H94.0801C93.7064 221.403 93.3327 221.722 92.959 221.891C92.5898 222.055 92.1273 222.137 91.5713 222.137C90.8285 222.137 90.2451 221.945 89.8213 221.562C89.402 221.18 89.1924 220.635 89.1924 219.929C89.1924 218.416 90.4023 217.623 92.8223 217.55L94.0938 217.509V217.044C94.0938 216.456 93.9661 216.023 93.7109 215.745C93.4603 215.463 93.057 215.321 92.501 215.321C91.8766 215.321 91.1702 215.513 90.3818 215.896L90.0332 215.027C90.4023 214.827 90.8057 214.67 91.2432 214.556C91.6852 214.442 92.1273 214.385 92.5693 214.385C93.4626 214.385 94.1234 214.583 94.5518 214.979C94.9847 215.376 95.2012 216.012 95.2012 216.887V222H94.3604ZM91.7969 221.2C92.5033 221.2 93.057 221.007 93.458 220.619C93.8636 220.232 94.0664 219.689 94.0664 218.992V218.315L92.9316 218.363C92.0293 218.395 91.3776 218.536 90.9766 218.787C90.5801 219.033 90.3818 219.418 90.3818 219.942C90.3818 220.353 90.5049 220.665 90.751 220.879C91.0016 221.093 91.3503 221.2 91.7969 221.2ZM106.016 219.956C106.016 220.653 105.756 221.191 105.236 221.569C104.717 221.948 103.988 222.137 103.049 222.137C102.055 222.137 101.281 221.979 100.725 221.665V220.612C101.085 220.795 101.47 220.938 101.88 221.043C102.295 221.148 102.693 221.2 103.076 221.2C103.669 221.2 104.124 221.107 104.443 220.92C104.762 220.729 104.922 220.439 104.922 220.052C104.922 219.76 104.794 219.512 104.539 219.307C104.288 219.097 103.796 218.851 103.062 218.568C102.365 218.309 101.868 218.083 101.572 217.892C101.281 217.696 101.062 217.475 100.916 217.229C100.775 216.982 100.704 216.688 100.704 216.347C100.704 215.736 100.952 215.255 101.449 214.904C101.946 214.549 102.627 214.371 103.493 214.371C104.3 214.371 105.088 214.535 105.858 214.863L105.455 215.786C104.703 215.476 104.022 215.321 103.411 215.321C102.873 215.321 102.468 215.406 102.194 215.574C101.921 215.743 101.784 215.975 101.784 216.271C101.784 216.472 101.834 216.643 101.935 216.784C102.039 216.925 102.206 217.06 102.434 217.188C102.661 217.315 103.099 217.5 103.746 217.741C104.635 218.065 105.234 218.391 105.544 218.719C105.858 219.047 106.016 219.459 106.016 219.956ZM112.476 222L112.25 220.934H112.195C111.822 221.403 111.448 221.722 111.074 221.891C110.705 222.055 110.243 222.137 109.687 222.137C108.944 222.137 108.36 221.945 107.937 221.562C107.517 221.18 107.308 220.635 107.308 219.929C107.308 218.416 108.518 217.623 110.938 217.55L112.209 217.509V217.044C112.209 216.456 112.081 216.023 111.826 215.745C111.576 215.463 111.172 215.321 110.616 215.321C109.992 215.321 109.285 215.513 108.497 215.896L108.148 215.027C108.518 214.827 108.921 214.67 109.358 214.556C109.8 214.442 110.243 214.385 110.685 214.385C111.578 214.385 112.239 214.583 112.667 214.979C113.1 215.376 113.316 216.012 113.316 216.887V222H112.476ZM109.912 221.2C110.618 221.2 111.172 221.007 111.573 220.619C111.979 220.232 112.182 219.689 112.182 218.992V218.315L111.047 218.363C110.145 218.395 109.493 218.536 109.092 218.787C108.695 219.033 108.497 219.418 108.497 219.942C108.497 220.353 108.62 220.665 108.866 220.879C109.117 221.093 109.465 221.2 109.912 221.2ZM116.796 222H115.661V211.363H116.796V222ZM123.81 222L123.584 220.934H123.529C123.156 221.403 122.782 221.722 122.408 221.891C122.039 222.055 121.576 222.137 121.021 222.137C120.278 222.137 119.694 221.945 119.271 221.562C118.851 221.18 118.642 220.635 118.642 219.929C118.642 218.416 119.852 217.623 122.271 217.55L123.543 217.509V217.044C123.543 216.456 123.415 216.023 123.16 215.745C122.91 215.463 122.506 215.321 121.95 215.321C121.326 215.321 120.619 215.513 119.831 215.896L119.482 215.027C119.852 214.827 120.255 214.67 120.692 214.556C121.134 214.442 121.576 214.385 122.019 214.385C122.912 214.385 123.573 214.583 124.001 214.979C124.434 215.376 124.65 216.012 124.65 216.887V222H123.81ZM121.246 221.2C121.952 221.2 122.506 221.007 122.907 220.619C123.313 220.232 123.516 219.689 123.516 218.992V218.315L122.381 218.363C121.479 218.395 120.827 218.536 120.426 218.787C120.029 219.033 119.831 219.418 119.831 219.942C119.831 220.353 119.954 220.665 120.2 220.879C120.451 221.093 120.799 221.2 121.246 221.2ZM134.118 222.137C133.631 222.137 133.184 222.048 132.778 221.87C132.377 221.688 132.04 221.41 131.767 221.036H131.685C131.739 221.474 131.767 221.888 131.767 222.28V225.363H130.632V214.508H131.555L131.712 215.533H131.767C132.058 215.123 132.398 214.827 132.785 214.645C133.173 214.462 133.617 214.371 134.118 214.371C135.112 214.371 135.877 214.711 136.415 215.39C136.957 216.069 137.229 217.021 137.229 218.247C137.229 219.478 136.953 220.435 136.401 221.118C135.854 221.797 135.093 222.137 134.118 222.137ZM133.954 215.335C133.188 215.335 132.635 215.547 132.293 215.971C131.951 216.395 131.776 217.069 131.767 217.994V218.247C131.767 219.3 131.942 220.054 132.293 220.51C132.644 220.961 133.207 221.187 133.981 221.187C134.629 221.187 135.134 220.924 135.499 220.4C135.868 219.876 136.053 219.154 136.053 218.233C136.053 217.299 135.868 216.584 135.499 216.087C135.134 215.586 134.619 215.335 133.954 215.335ZM143.825 222L143.6 220.934H143.545C143.171 221.403 142.798 221.722 142.424 221.891C142.055 222.055 141.592 222.137 141.036 222.137C140.293 222.137 139.71 221.945 139.286 221.562C138.867 221.18 138.657 220.635 138.657 219.929C138.657 218.416 139.867 217.623 142.287 217.55L143.559 217.509V217.044C143.559 216.456 143.431 216.023 143.176 215.745C142.925 215.463 142.522 215.321 141.966 215.321C141.341 215.321 140.635 215.513 139.847 215.896L139.498 215.027C139.867 214.827 140.271 214.67 140.708 214.556C141.15 214.442 141.592 214.385 142.034 214.385C142.927 214.385 143.588 214.583 144.017 214.979C144.45 215.376 144.666 216.012 144.666 216.887V222H143.825ZM141.262 221.2C141.968 221.2 142.522 221.007 142.923 220.619C143.328 220.232 143.531 219.689 143.531 218.992V218.315L142.396 218.363C141.494 218.395 140.842 218.536 140.441 218.787C140.045 219.033 139.847 219.418 139.847 219.942C139.847 220.353 139.97 220.665 140.216 220.879C140.466 221.093 140.815 221.2 141.262 221.2ZM150.429 214.371C150.761 214.371 151.06 214.398 151.324 214.453L151.167 215.506C150.857 215.438 150.584 215.403 150.347 215.403C149.741 215.403 149.221 215.649 148.788 216.142C148.36 216.634 148.146 217.247 148.146 217.98V222H147.011V214.508H147.947L148.077 215.896H148.132C148.41 215.408 148.745 215.032 149.137 214.768C149.529 214.503 149.959 214.371 150.429 214.371ZM157.333 222L157.107 220.934H157.053C156.679 221.403 156.305 221.722 155.932 221.891C155.562 222.055 155.1 222.137 154.544 222.137C153.801 222.137 153.218 221.945 152.794 221.562C152.375 221.18 152.165 220.635 152.165 219.929C152.165 218.416 153.375 217.623 155.795 217.55L157.066 217.509V217.044C157.066 216.456 156.939 216.023 156.684 215.745C156.433 215.463 156.03 215.321 155.474 215.321C154.849 215.321 154.143 215.513 153.354 215.896L153.006 215.027C153.375 214.827 153.778 214.67 154.216 214.556C154.658 214.442 155.1 214.385 155.542 214.385C156.435 214.385 157.096 214.583 157.524 214.979C157.957 215.376 158.174 216.012 158.174 216.887V222H157.333ZM154.77 221.2C155.476 221.2 156.03 221.007 156.431 220.619C156.836 220.232 157.039 219.689 157.039 218.992V218.315L155.904 218.363C155.002 218.395 154.35 218.536 153.949 218.787C153.553 219.033 153.354 219.418 153.354 219.942C153.354 220.353 153.478 220.665 153.724 220.879C153.974 221.093 154.323 221.2 154.77 221.2ZM170.622 218.247C170.622 219.468 170.314 220.423 169.699 221.111C169.084 221.795 168.234 222.137 167.149 222.137C166.479 222.137 165.885 221.979 165.365 221.665C164.846 221.351 164.445 220.899 164.162 220.312C163.88 219.724 163.738 219.035 163.738 218.247C163.738 217.026 164.044 216.076 164.654 215.396C165.265 214.713 166.113 214.371 167.197 214.371C168.245 214.371 169.077 214.72 169.692 215.417C170.312 216.114 170.622 217.058 170.622 218.247ZM164.914 218.247C164.914 219.204 165.105 219.933 165.488 220.435C165.871 220.936 166.434 221.187 167.177 221.187C167.92 221.187 168.482 220.938 168.865 220.441C169.253 219.94 169.446 219.209 169.446 218.247C169.446 217.295 169.253 216.572 168.865 216.08C168.482 215.583 167.915 215.335 167.163 215.335C166.42 215.335 165.86 215.579 165.481 216.066C165.103 216.554 164.914 217.281 164.914 218.247ZM173.685 214.508V219.368C173.685 219.979 173.824 220.435 174.102 220.735C174.38 221.036 174.815 221.187 175.407 221.187C176.191 221.187 176.763 220.972 177.123 220.544C177.488 220.116 177.67 219.416 177.67 218.445V214.508H178.805V222H177.868L177.704 220.995H177.643C177.41 221.364 177.087 221.647 176.672 221.843C176.262 222.039 175.792 222.137 175.264 222.137C174.352 222.137 173.669 221.92 173.213 221.487C172.762 221.054 172.536 220.362 172.536 219.409V214.508H173.685ZM183.638 221.2C183.838 221.2 184.032 221.187 184.219 221.159C184.406 221.127 184.554 221.095 184.663 221.063V221.932C184.54 221.991 184.358 222.039 184.116 222.075C183.879 222.116 183.665 222.137 183.474 222.137C182.024 222.137 181.3 221.373 181.3 219.847V215.39H180.227V214.843L181.3 214.371L181.778 212.771H182.435V214.508H184.608V215.39H182.435V219.799C182.435 220.25 182.542 220.596 182.756 220.838C182.97 221.079 183.264 221.2 183.638 221.2ZM189.585 214.371C189.918 214.371 190.216 214.398 190.48 214.453L190.323 215.506C190.013 215.438 189.74 215.403 189.503 215.403C188.897 215.403 188.377 215.649 187.944 216.142C187.516 216.634 187.302 217.247 187.302 217.98V222H186.167V214.508H187.104L187.233 215.896H187.288C187.566 215.408 187.901 215.032 188.293 214.768C188.685 214.503 189.116 214.371 189.585 214.371ZM196.489 222L196.264 220.934H196.209C195.835 221.403 195.462 221.722 195.088 221.891C194.719 222.055 194.256 222.137 193.7 222.137C192.957 222.137 192.374 221.945 191.95 221.562C191.531 221.18 191.321 220.635 191.321 219.929C191.321 218.416 192.531 217.623 194.951 217.55L196.223 217.509V217.044C196.223 216.456 196.095 216.023 195.84 215.745C195.589 215.463 195.186 215.321 194.63 215.321C194.006 215.321 193.299 215.513 192.511 215.896L192.162 215.027C192.531 214.827 192.935 214.67 193.372 214.556C193.814 214.442 194.256 214.385 194.698 214.385C195.591 214.385 196.252 214.583 196.681 214.979C197.114 215.376 197.33 216.012 197.33 216.887V222H196.489ZM193.926 221.2C194.632 221.2 195.186 221.007 195.587 220.619C195.993 220.232 196.195 219.689 196.195 218.992V218.315L195.061 218.363C194.158 218.395 193.507 218.536 193.105 218.787C192.709 219.033 192.511 219.418 192.511 219.942C192.511 220.353 192.634 220.665 192.88 220.879C193.131 221.093 193.479 221.2 193.926 221.2ZM204.508 219.956C204.508 220.653 204.248 221.191 203.729 221.569C203.209 221.948 202.48 222.137 201.541 222.137C200.548 222.137 199.773 221.979 199.217 221.665V220.612C199.577 220.795 199.962 220.938 200.372 221.043C200.787 221.148 201.186 221.2 201.568 221.2C202.161 221.2 202.617 221.107 202.936 220.92C203.255 220.729 203.414 220.439 203.414 220.052C203.414 219.76 203.286 219.512 203.031 219.307C202.781 219.097 202.288 218.851 201.555 218.568C200.857 218.309 200.361 218.083 200.064 217.892C199.773 217.696 199.554 217.475 199.408 217.229C199.267 216.982 199.196 216.688 199.196 216.347C199.196 215.736 199.445 215.255 199.941 214.904C200.438 214.549 201.119 214.371 201.985 214.371C202.792 214.371 203.58 214.535 204.351 214.863L203.947 215.786C203.195 215.476 202.514 215.321 201.903 215.321C201.366 215.321 200.96 215.406 200.687 215.574C200.413 215.743 200.276 215.975 200.276 216.271C200.276 216.472 200.326 216.643 200.427 216.784C200.532 216.925 200.698 217.06 200.926 217.188C201.154 217.315 201.591 217.5 202.238 217.741C203.127 218.065 203.726 218.391 204.036 218.719C204.351 219.047 204.508 219.459 204.508 219.956ZM213.483 222.137C212.996 222.137 212.549 222.048 212.144 221.87C211.743 221.688 211.405 221.41 211.132 221.036H211.05C211.104 221.474 211.132 221.888 211.132 222.28V225.363H209.997V214.508H210.92L211.077 215.533H211.132C211.424 215.123 211.763 214.827 212.15 214.645C212.538 214.462 212.982 214.371 213.483 214.371C214.477 214.371 215.243 214.711 215.78 215.39C216.323 216.069 216.594 217.021 216.594 218.247C216.594 219.478 216.318 220.435 215.767 221.118C215.22 221.797 214.459 222.137 213.483 222.137ZM213.319 215.335C212.554 215.335 212 215.547 211.658 215.971C211.316 216.395 211.141 217.069 211.132 217.994V218.247C211.132 219.3 211.307 220.054 211.658 220.51C212.009 220.961 212.572 221.187 213.347 221.187C213.994 221.187 214.5 220.924 214.864 220.4C215.233 219.876 215.418 219.154 215.418 218.233C215.418 217.299 215.233 216.584 214.864 216.087C214.5 215.586 213.985 215.335 213.319 215.335ZM221.748 222.137C220.641 222.137 219.766 221.799 219.123 221.125C218.485 220.451 218.166 219.514 218.166 218.315C218.166 217.108 218.462 216.148 219.055 215.438C219.652 214.727 220.451 214.371 221.454 214.371C222.393 214.371 223.136 214.681 223.683 215.301C224.229 215.916 224.503 216.729 224.503 217.741V218.459H219.342C219.365 219.339 219.586 220.006 220.005 220.462C220.429 220.918 221.023 221.146 221.789 221.146C222.596 221.146 223.393 220.977 224.182 220.64V221.651C223.781 221.825 223.4 221.948 223.04 222.021C222.685 222.098 222.254 222.137 221.748 222.137ZM221.44 215.321C220.839 215.321 220.358 215.517 219.998 215.909C219.643 216.301 219.433 216.843 219.369 217.536H223.286C223.286 216.821 223.127 216.274 222.808 215.896C222.489 215.513 222.033 215.321 221.44 215.321ZM231.277 219.956C231.277 220.653 231.018 221.191 230.498 221.569C229.979 221.948 229.249 222.137 228.311 222.137C227.317 222.137 226.542 221.979 225.986 221.665V220.612C226.346 220.795 226.731 220.938 227.142 221.043C227.556 221.148 227.955 221.2 228.338 221.2C228.93 221.2 229.386 221.107 229.705 220.92C230.024 220.729 230.184 220.439 230.184 220.052C230.184 219.76 230.056 219.512 229.801 219.307C229.55 219.097 229.058 218.851 228.324 218.568C227.627 218.309 227.13 218.083 226.834 217.892C226.542 217.696 226.324 217.475 226.178 217.229C226.036 216.982 225.966 216.688 225.966 216.347C225.966 215.736 226.214 215.255 226.711 214.904C227.208 214.549 227.889 214.371 228.755 214.371C229.562 214.371 230.35 214.535 231.12 214.863L230.717 215.786C229.965 215.476 229.284 215.321 228.673 215.321C228.135 215.321 227.729 215.406 227.456 215.574C227.183 215.743 227.046 215.975 227.046 216.271C227.046 216.472 227.096 216.643 227.196 216.784C227.301 216.925 227.467 217.06 227.695 217.188C227.923 217.315 228.361 217.5 229.008 217.741C229.896 218.065 230.496 218.391 230.806 218.719C231.12 219.047 231.277 219.459 231.277 219.956ZM237.963 219.956C237.963 220.653 237.703 221.191 237.184 221.569C236.664 221.948 235.935 222.137 234.996 222.137C234.003 222.137 233.228 221.979 232.672 221.665V220.612C233.032 220.795 233.417 220.938 233.827 221.043C234.242 221.148 234.641 221.2 235.023 221.2C235.616 221.2 236.072 221.107 236.391 220.92C236.71 220.729 236.869 220.439 236.869 220.052C236.869 219.76 236.742 219.512 236.486 219.307C236.236 219.097 235.743 218.851 235.01 218.568C234.312 218.309 233.816 218.083 233.52 217.892C233.228 217.696 233.009 217.475 232.863 217.229C232.722 216.982 232.651 216.688 232.651 216.347C232.651 215.736 232.9 215.255 233.396 214.904C233.893 214.549 234.575 214.371 235.44 214.371C236.247 214.371 237.035 214.535 237.806 214.863L237.402 215.786C236.65 215.476 235.969 215.321 235.358 215.321C234.821 215.321 234.415 215.406 234.142 215.574C233.868 215.743 233.731 215.975 233.731 216.271C233.731 216.472 233.782 216.643 233.882 216.784C233.987 216.925 234.153 217.06 234.381 217.188C234.609 217.315 235.046 217.5 235.693 217.741C236.582 218.065 237.181 218.391 237.491 218.719C237.806 219.047 237.963 219.459 237.963 219.956ZM246.282 218.247C246.282 219.468 245.975 220.423 245.359 221.111C244.744 221.795 243.894 222.137 242.81 222.137C242.14 222.137 241.545 221.979 241.025 221.665C240.506 221.351 240.105 220.899 239.822 220.312C239.54 219.724 239.398 219.035 239.398 218.247C239.398 217.026 239.704 216.076 240.314 215.396C240.925 214.713 241.773 214.371 242.857 214.371C243.906 214.371 244.737 214.72 245.353 215.417C245.972 216.114 246.282 217.058 246.282 218.247ZM240.574 218.247C240.574 219.204 240.766 219.933 241.148 220.435C241.531 220.936 242.094 221.187 242.837 221.187C243.58 221.187 244.143 220.938 244.525 220.441C244.913 219.94 245.106 219.209 245.106 218.247C245.106 217.295 244.913 216.572 244.525 216.08C244.143 215.583 243.575 215.335 242.823 215.335C242.08 215.335 241.52 215.579 241.142 216.066C240.763 216.554 240.574 217.281 240.574 218.247ZM252.886 222L252.66 220.934H252.605C252.232 221.403 251.858 221.722 251.484 221.891C251.115 222.055 250.653 222.137 250.097 222.137C249.354 222.137 248.771 221.945 248.347 221.562C247.927 221.18 247.718 220.635 247.718 219.929C247.718 218.416 248.928 217.623 251.348 217.55L252.619 217.509V217.044C252.619 216.456 252.492 216.023 252.236 215.745C251.986 215.463 251.582 215.321 251.026 215.321C250.402 215.321 249.696 215.513 248.907 215.896L248.559 215.027C248.928 214.827 249.331 214.67 249.769 214.556C250.211 214.442 250.653 214.385 251.095 214.385C251.988 214.385 252.649 214.583 253.077 214.979C253.51 215.376 253.727 216.012 253.727 216.887V222H252.886ZM250.322 221.2C251.029 221.2 251.582 221.007 251.983 220.619C252.389 220.232 252.592 219.689 252.592 218.992V218.315L251.457 218.363C250.555 218.395 249.903 218.536 249.502 218.787C249.105 219.033 248.907 219.418 248.907 219.942C248.907 220.353 249.03 220.665 249.276 220.879C249.527 221.093 249.876 221.2 250.322 221.2ZM260.904 219.956C260.904 220.653 260.645 221.191 260.125 221.569C259.605 221.948 258.876 222.137 257.938 222.137C256.944 222.137 256.169 221.979 255.613 221.665V220.612C255.973 220.795 256.358 220.938 256.769 221.043C257.183 221.148 257.582 221.2 257.965 221.2C258.557 221.2 259.013 221.107 259.332 220.92C259.651 220.729 259.811 220.439 259.811 220.052C259.811 219.76 259.683 219.512 259.428 219.307C259.177 219.097 258.685 218.851 257.951 218.568C257.254 218.309 256.757 218.083 256.461 217.892C256.169 217.696 255.951 217.475 255.805 217.229C255.663 216.982 255.593 216.688 255.593 216.347C255.593 215.736 255.841 215.255 256.338 214.904C256.835 214.549 257.516 214.371 258.382 214.371C259.188 214.371 259.977 214.535 260.747 214.863L260.344 215.786C259.592 215.476 258.91 215.321 258.3 215.321C257.762 215.321 257.356 215.406 257.083 215.574C256.81 215.743 256.673 215.975 256.673 216.271C256.673 216.472 256.723 216.643 256.823 216.784C256.928 216.925 257.094 217.06 257.322 217.188C257.55 217.315 257.988 217.5 258.635 217.741C259.523 218.065 260.123 218.391 260.433 218.719C260.747 219.047 260.904 219.459 260.904 219.956ZM263.782 219.245H263.064L262.716 212.006H264.131L263.782 219.245ZM262.593 221.275C262.593 220.656 262.866 220.346 263.413 220.346C263.677 220.346 263.88 220.425 264.021 220.585C264.167 220.744 264.24 220.975 264.24 221.275C264.24 221.567 264.167 221.795 264.021 221.959C263.876 222.118 263.673 222.198 263.413 222.198C263.176 222.198 262.98 222.128 262.825 221.986C262.67 221.84 262.593 221.604 262.593 221.275Z" fill="#4D5E77"/>
<path d="M12.4734 168H9.95335L4.24735 159.378V168H1.72735V155.418H4.24735L9.95335 164.058V155.418H12.4734V168ZM24.2337 162.798C24.2337 163.158 24.2097 163.482 24.1617 163.77H16.8717C16.9317 164.49 17.1837 165.054 17.6277 165.462C18.0717 165.87 18.6177 166.074 19.2657 166.074C20.2017 166.074 20.8677 165.672 21.2637 164.868H23.9817C23.6937 165.828 23.1417 166.62 22.3257 167.244C21.5097 167.856 20.5077 168.162 19.3197 168.162C18.3597 168.162 17.4957 167.952 16.7277 167.532C15.9717 167.1 15.3777 166.494 14.9457 165.714C14.5257 164.934 14.3157 164.034 14.3157 163.014C14.3157 161.982 14.5257 161.076 14.9457 160.296C15.3657 159.516 15.9537 158.916 16.7097 158.496C17.4657 158.076 18.3357 157.866 19.3197 157.866C20.2677 157.866 21.1137 158.07 21.8577 158.478C22.6137 158.886 23.1957 159.468 23.6037 160.224C24.0237 160.968 24.2337 161.826 24.2337 162.798ZM21.6237 162.078C21.6117 161.43 21.3777 160.914 20.9217 160.53C20.4657 160.134 19.9077 159.936 19.2477 159.936C18.6237 159.936 18.0957 160.128 17.6637 160.512C17.2437 160.884 16.9857 161.406 16.8897 162.078H21.6237ZM31.5991 157.884C32.7871 157.884 33.7471 158.262 34.4791 159.018C35.2111 159.762 35.5771 160.806 35.5771 162.15V168H33.0571V162.492C33.0571 161.7 32.8591 161.094 32.4631 160.674C32.0671 160.242 31.5271 160.026 30.8431 160.026C30.1471 160.026 29.5951 160.242 29.1871 160.674C28.7911 161.094 28.5931 161.7 28.5931 162.492V168H26.0731V158.028H28.5931V159.27C28.9291 158.838 29.3551 158.502 29.8711 158.262C30.3991 158.01 30.9751 157.884 31.5991 157.884ZM43.5894 157.884C44.3454 157.884 45.0174 158.052 45.6054 158.388C46.1934 158.712 46.6494 159.198 46.9734 159.846C47.3094 160.482 47.4774 161.25 47.4774 162.15V168H44.9574V162.492C44.9574 161.7 44.7594 161.094 44.3634 160.674C43.9674 160.242 43.4274 160.026 42.7434 160.026C42.0474 160.026 41.4954 160.242 41.0874 160.674C40.6914 161.094 40.4934 161.7 40.4934 162.492V168H37.9734V154.68H40.4934V159.27C40.8174 158.838 41.2494 158.502 41.7894 158.262C42.3294 158.01 42.9294 157.884 43.5894 157.884ZM59.2878 158.028V168H56.7498V166.74C56.4258 167.172 55.9998 167.514 55.4718 167.766C54.9558 168.006 54.3918 168.126 53.7798 168.126C52.9998 168.126 52.3098 167.964 51.7098 167.64C51.1098 167.304 50.6358 166.818 50.2878 166.182C49.9518 165.534 49.7838 164.766 49.7838 163.878V158.028H52.3038V163.518C52.3038 164.31 52.5018 164.922 52.8978 165.354C53.2938 165.774 53.8338 165.984 54.5178 165.984C55.2138 165.984 55.7598 165.774 56.1558 165.354C56.5518 164.922 56.7498 164.31 56.7498 163.518V158.028H59.2878ZM74.1582 157.884C75.3822 157.884 76.3662 158.262 77.1102 159.018C77.8662 159.762 78.2442 160.806 78.2442 162.15V168H75.7242V162.492C75.7242 161.712 75.5262 161.118 75.1302 160.71C74.7342 160.29 74.1942 160.08 73.5102 160.08C72.8262 160.08 72.2802 160.29 71.8722 160.71C71.4762 161.118 71.2782 161.712 71.2782 162.492V168H68.7582V162.492C68.7582 161.712 68.5602 161.118 68.1642 160.71C67.7682 160.29 67.2282 160.08 66.5442 160.08C65.8482 160.08 65.2962 160.29 64.8882 160.71C64.4922 161.118 64.2942 161.712 64.2942 162.492V168H61.7742V158.028H64.2942V159.234C64.6182 158.814 65.0322 158.484 65.5362 158.244C66.0522 158.004 66.6162 157.884 67.2282 157.884C68.0082 157.884 68.7042 158.052 69.3162 158.388C69.9282 158.712 70.4022 159.18 70.7382 159.792C71.0622 159.216 71.5302 158.754 72.1422 158.406C72.7662 158.058 73.4382 157.884 74.1582 157.884ZM79.9876 162.978C79.9876 161.97 80.1856 161.076 80.5816 160.296C80.9896 159.516 81.5356 158.916 82.2196 158.496C82.9156 158.076 83.6896 157.866 84.5416 157.866C85.2856 157.866 85.9336 158.016 86.4856 158.316C87.0496 158.616 87.4996 158.994 87.8356 159.45V158.028H90.3736V168H87.8356V166.542C87.5116 167.01 87.0616 167.4 86.4856 167.712C85.9216 168.012 85.2676 168.162 84.5236 168.162C83.6836 168.162 82.9156 167.946 82.2196 167.514C81.5356 167.082 80.9896 166.476 80.5816 165.696C80.1856 164.904 79.9876 163.998 79.9876 162.978ZM87.8356 163.014C87.8356 162.402 87.7156 161.88 87.4756 161.448C87.2356 161.004 86.9116 160.668 86.5036 160.44C86.0956 160.2 85.6576 160.08 85.1896 160.08C84.7216 160.08 84.2896 160.194 83.8936 160.422C83.4976 160.65 83.1736 160.986 82.9216 161.43C82.6816 161.862 82.5616 162.378 82.5616 162.978C82.5616 163.578 82.6816 164.106 82.9216 164.562C83.1736 165.006 83.4976 165.348 83.8936 165.588C84.3016 165.828 84.7336 165.948 85.1896 165.948C85.6576 165.948 86.0956 165.834 86.5036 165.606C86.9116 165.366 87.2356 165.03 87.4756 164.598C87.7156 164.154 87.8356 163.626 87.8356 163.014ZM99.6438 159.468C99.9678 159.012 100.412 158.634 100.976 158.334C101.552 158.022 102.206 157.866 102.938 157.866C103.79 157.866 104.558 158.076 105.242 158.496C105.938 158.916 106.484 159.516 106.88 160.296C107.288 161.064 107.492 161.958 107.492 162.978C107.492 163.998 107.288 164.904 106.88 165.696C106.484 166.476 105.938 167.082 105.242 167.514C104.558 167.946 103.79 168.162 102.938 168.162C102.206 168.162 101.558 168.012 100.994 167.712C100.442 167.412 99.9918 167.034 99.6438 166.578V172.752H97.1238V158.028H99.6438V159.468ZM104.918 162.978C104.918 162.378 104.792 161.862 104.54 161.43C104.3 160.986 103.976 160.65 103.568 160.422C103.172 160.194 102.74 160.08 102.272 160.08C101.816 160.08 101.384 160.2 100.976 160.44C100.58 160.668 100.256 161.004 100.004 161.448C99.7638 161.892 99.6438 162.414 99.6438 163.014C99.6438 163.614 99.7638 164.136 100.004 164.58C100.256 165.024 100.58 165.366 100.976 165.606C101.384 165.834 101.816 165.948 102.272 165.948C102.74 165.948 103.172 165.828 103.568 165.588C103.976 165.348 104.3 165.006 104.54 164.562C104.792 164.118 104.918 163.59 104.918 162.978ZM118.593 162.798C118.593 163.158 118.569 163.482 118.521 163.77H111.231C111.291 164.49 111.543 165.054 111.987 165.462C112.431 165.87 112.977 166.074 113.625 166.074C114.561 166.074 115.227 165.672 115.623 164.868H118.341C118.053 165.828 117.501 166.62 116.685 167.244C115.869 167.856 114.867 168.162 113.679 168.162C112.719 168.162 111.855 167.952 111.087 167.532C110.331 167.1 109.737 166.494 109.305 165.714C108.885 164.934 108.675 164.034 108.675 163.014C108.675 161.982 108.885 161.076 109.305 160.296C109.725 159.516 110.313 158.916 111.069 158.496C111.825 158.076 112.695 157.866 113.679 157.866C114.627 157.866 115.473 158.07 116.217 158.478C116.973 158.886 117.555 159.468 117.963 160.224C118.383 160.968 118.593 161.826 118.593 162.798ZM115.983 162.078C115.971 161.43 115.737 160.914 115.281 160.53C114.825 160.134 114.267 159.936 113.607 159.936C112.983 159.936 112.455 160.128 112.023 160.512C111.603 160.884 111.345 161.406 111.249 162.078H115.983ZM122.952 159.576C123.276 159.048 123.696 158.634 124.212 158.334C124.74 158.034 125.34 157.884 126.012 157.884V160.53H125.346C124.554 160.53 123.954 160.716 123.546 161.088C123.15 161.46 122.952 162.108 122.952 163.032V168H120.432V158.028H122.952V159.576ZM131.616 157.866C132.36 157.866 133.014 158.016 133.578 158.316C134.142 158.604 134.586 158.982 134.91 159.45V158.028H137.448V168.072C137.448 168.996 137.262 169.818 136.89 170.538C136.518 171.27 135.96 171.846 135.216 172.266C134.472 172.698 133.572 172.914 132.516 172.914C131.1 172.914 129.936 172.584 129.024 171.924C128.124 171.264 127.614 170.364 127.494 169.224H129.996C130.128 169.68 130.41 170.04 130.842 170.304C131.286 170.58 131.82 170.718 132.444 170.718C133.176 170.718 133.77 170.496 134.226 170.052C134.682 169.62 134.91 168.96 134.91 168.072V166.524C134.586 166.992 134.136 167.382 133.56 167.694C132.996 168.006 132.348 168.162 131.616 168.162C130.776 168.162 130.008 167.946 129.312 167.514C128.616 167.082 128.064 166.476 127.656 165.696C127.26 164.904 127.062 163.998 127.062 162.978C127.062 161.97 127.26 161.076 127.656 160.296C128.064 159.516 128.61 158.916 129.294 158.496C129.99 158.076 130.764 157.866 131.616 157.866ZM134.91 163.014C134.91 162.402 134.79 161.88 134.55 161.448C134.31 161.004 133.986 160.668 133.578 160.44C133.17 160.2 132.732 160.08 132.264 160.08C131.796 160.08 131.364 160.194 130.968 160.422C130.572 160.65 130.248 160.986 129.996 161.43C129.756 161.862 129.636 162.378 129.636 162.978C129.636 163.578 129.756 164.106 129.996 164.562C130.248 165.006 130.572 165.348 130.968 165.588C131.376 165.828 131.808 165.948 132.264 165.948C132.732 165.948 133.17 165.834 133.578 165.606C133.986 165.366 134.31 165.03 134.55 164.598C134.79 164.154 134.91 163.626 134.91 163.014ZM149.323 158.028V168H146.785V166.74C146.461 167.172 146.035 167.514 145.507 167.766C144.991 168.006 144.427 168.126 143.815 168.126C143.035 168.126 142.345 167.964 141.745 167.64C141.145 167.304 140.671 166.818 140.323 166.182C139.987 165.534 139.819 164.766 139.819 163.878V158.028H142.339V163.518C142.339 164.31 142.537 164.922 142.933 165.354C143.329 165.774 143.869 165.984 144.553 165.984C145.249 165.984 145.795 165.774 146.191 165.354C146.587 164.922 146.785 164.31 146.785 163.518V158.028H149.323ZM157.335 157.884C158.523 157.884 159.483 158.262 160.215 159.018C160.947 159.762 161.313 160.806 161.313 162.15V168H158.793V162.492C158.793 161.7 158.595 161.094 158.199 160.674C157.803 160.242 157.263 160.026 156.579 160.026C155.883 160.026 155.331 160.242 154.923 160.674C154.527 161.094 154.329 161.7 154.329 162.492V168H151.809V158.028H154.329V159.27C154.665 158.838 155.091 158.502 155.607 158.262C156.135 158.01 156.711 157.884 157.335 157.884ZM166.644 160.098V164.922C166.644 165.258 166.722 165.504 166.878 165.66C167.046 165.804 167.322 165.876 167.706 165.876H168.876V168H167.292C165.168 168 164.106 166.968 164.106 164.904V160.098H162.918V158.028H164.106V155.562H166.644V158.028H168.876V160.098H166.644ZM170.04 162.978C170.04 161.97 170.238 161.076 170.634 160.296C171.042 159.516 171.588 158.916 172.272 158.496C172.968 158.076 173.742 157.866 174.594 157.866C175.338 157.866 175.986 158.016 176.538 158.316C177.102 158.616 177.552 158.994 177.888 159.45V158.028H180.426V168H177.888V166.542C177.564 167.01 177.114 167.4 176.538 167.712C175.974 168.012 175.32 168.162 174.576 168.162C173.736 168.162 172.968 167.946 172.272 167.514C171.588 167.082 171.042 166.476 170.634 165.696C170.238 164.904 170.04 163.998 170.04 162.978ZM177.888 163.014C177.888 162.402 177.768 161.88 177.528 161.448C177.288 161.004 176.964 160.668 176.556 160.44C176.148 160.2 175.71 160.08 175.242 160.08C174.774 160.08 174.342 160.194 173.946 160.422C173.55 160.65 173.226 160.986 172.974 161.43C172.734 161.862 172.614 162.378 172.614 162.978C172.614 163.578 172.734 164.106 172.974 164.562C173.226 165.006 173.55 165.348 173.946 165.588C174.354 165.828 174.786 165.948 175.242 165.948C175.71 165.948 176.148 165.834 176.556 165.606C176.964 165.366 177.288 165.03 177.528 164.598C177.768 164.154 177.888 163.626 177.888 163.014ZM189.697 159.468C190.021 159.012 190.465 158.634 191.029 158.334C191.605 158.022 192.259 157.866 192.991 157.866C193.843 157.866 194.611 158.076 195.295 158.496C195.991 158.916 196.537 159.516 196.933 160.296C197.341 161.064 197.545 161.958 197.545 162.978C197.545 163.998 197.341 164.904 196.933 165.696C196.537 166.476 195.991 167.082 195.295 167.514C194.611 167.946 193.843 168.162 192.991 168.162C192.259 168.162 191.611 168.012 191.047 167.712C190.495 167.412 190.045 167.034 189.697 166.578V172.752H187.177V158.028H189.697V159.468ZM194.971 162.978C194.971 162.378 194.845 161.862 194.593 161.43C194.353 160.986 194.029 160.65 193.621 160.422C193.225 160.194 192.793 160.08 192.325 160.08C191.869 160.08 191.437 160.2 191.029 160.44C190.633 160.668 190.309 161.004 190.057 161.448C189.817 161.892 189.697 162.414 189.697 163.014C189.697 163.614 189.817 164.136 190.057 164.58C190.309 165.024 190.633 165.366 191.029 165.606C191.437 165.834 191.869 165.948 192.325 165.948C192.793 165.948 193.225 165.828 193.621 165.588C194.029 165.348 194.353 165.006 194.593 164.562C194.845 164.118 194.971 163.59 194.971 162.978ZM203.804 168.162C202.844 168.162 201.98 167.952 201.212 167.532C200.444 167.1 199.838 166.494 199.394 165.714C198.962 164.934 198.746 164.034 198.746 163.014C198.746 161.994 198.968 161.094 199.412 160.314C199.868 159.534 200.486 158.934 201.266 158.514C202.046 158.082 202.916 157.866 203.876 157.866C204.836 157.866 205.706 158.082 206.486 158.514C207.266 158.934 207.878 159.534 208.322 160.314C208.778 161.094 209.006 161.994 209.006 163.014C209.006 164.034 208.772 164.934 208.304 165.714C207.848 166.494 207.224 167.1 206.432 167.532C205.652 167.952 204.776 168.162 203.804 168.162ZM203.804 165.966C204.26 165.966 204.686 165.858 205.082 165.642C205.49 165.414 205.814 165.078 206.054 164.634C206.294 164.19 206.414 163.65 206.414 163.014C206.414 162.066 206.162 161.34 205.658 160.836C205.166 160.32 204.56 160.062 203.84 160.062C203.12 160.062 202.514 160.32 202.022 160.836C201.542 161.34 201.302 162.066 201.302 163.014C201.302 163.962 201.536 164.694 202.004 165.21C202.484 165.714 203.084 165.966 203.804 165.966ZM213.374 159.576C213.698 159.048 214.118 158.634 214.634 158.334C215.162 158.034 215.762 157.884 216.434 157.884V160.53H215.768C214.976 160.53 214.376 160.716 213.968 161.088C213.572 161.46 213.374 162.108 213.374 163.032V168H210.854V158.028H213.374V159.576ZM221.773 162.978C221.773 161.97 221.971 161.076 222.367 160.296C222.775 159.516 223.321 158.916 224.005 158.496C224.701 158.076 225.475 157.866 226.327 157.866C227.071 157.866 227.719 158.016 228.271 158.316C228.835 158.616 229.285 158.994 229.621 159.45V158.028H232.159V168H229.621V166.542C229.297 167.01 228.847 167.4 228.271 167.712C227.707 168.012 227.053 168.162 226.309 168.162C225.469 168.162 224.701 167.946 224.005 167.514C223.321 167.082 222.775 166.476 222.367 165.696C221.971 164.904 221.773 163.998 221.773 162.978ZM229.621 163.014C229.621 162.402 229.501 161.88 229.261 161.448C229.021 161.004 228.697 160.668 228.289 160.44C227.881 160.2 227.443 160.08 226.975 160.08C226.507 160.08 226.075 160.194 225.679 160.422C225.283 160.65 224.959 160.986 224.707 161.43C224.467 161.862 224.347 162.378 224.347 162.978C224.347 163.578 224.467 164.106 224.707 164.562C224.959 165.006 225.283 165.348 225.679 165.588C226.087 165.828 226.519 165.948 226.975 165.948C227.443 165.948 227.881 165.834 228.289 165.606C228.697 165.366 229.021 165.03 229.261 164.598C229.501 164.154 229.621 163.626 229.621 163.014ZM233.972 162.996C233.972 162 234.176 161.118 234.584 160.35C235.004 159.57 235.568 158.964 236.276 158.532C236.984 158.1 237.764 157.884 238.616 157.884C239.324 157.884 239.948 158.022 240.488 158.298C241.04 158.562 241.484 158.904 241.82 159.324V158.028H244.358V172.752H241.82V166.632C241.484 167.064 241.034 167.424 240.47 167.712C239.906 168 239.27 168.144 238.562 168.144C237.722 168.144 236.948 167.928 236.24 167.496C235.544 167.052 234.992 166.44 234.584 165.66C234.176 164.88 233.972 163.992 233.972 162.996ZM241.82 163.014C241.82 162.402 241.694 161.874 241.442 161.43C241.19 160.986 240.86 160.65 240.452 160.422C240.056 160.194 239.63 160.08 239.174 160.08C238.73 160.08 238.304 160.194 237.896 160.422C237.5 160.65 237.176 160.986 236.924 161.43C236.672 161.862 236.546 162.384 236.546 162.996C236.546 163.608 236.672 164.142 236.924 164.598C237.176 165.042 237.5 165.378 237.896 165.606C238.304 165.834 238.73 165.948 239.174 165.948C239.63 165.948 240.056 165.834 240.452 165.606C240.86 165.378 241.19 165.042 241.442 164.598C241.694 164.154 241.82 163.626 241.82 163.014ZM256.233 158.028V168H253.695V166.74C253.371 167.172 252.945 167.514 252.417 167.766C251.901 168.006 251.337 168.126 250.725 168.126C249.945 168.126 249.255 167.964 248.655 167.64C248.055 167.304 247.581 166.818 247.233 166.182C246.897 165.534 246.729 164.766 246.729 163.878V158.028H249.249V163.518C249.249 164.31 249.447 164.922 249.843 165.354C250.239 165.774 250.779 165.984 251.463 165.984C252.159 165.984 252.705 165.774 253.101 165.354C253.497 164.922 253.695 164.31 253.695 163.518V158.028H256.233ZM259.998 156.84C259.554 156.84 259.182 156.702 258.882 156.426C258.594 156.138 258.45 155.784 258.45 155.364C258.45 154.944 258.594 154.596 258.882 154.32C259.182 154.032 259.554 153.888 259.998 153.888C260.442 153.888 260.808 154.032 261.096 154.32C261.396 154.596 261.546 154.944 261.546 155.364C261.546 155.784 261.396 156.138 261.096 156.426C260.808 156.702 260.442 156.84 259.998 156.84ZM261.24 158.028V168H258.72V158.028H261.24ZM264.845 168.126C264.389 168.126 264.011 167.988 263.711 167.712C263.423 167.424 263.279 167.07 263.279 166.65C263.279 166.23 263.423 165.882 263.711 165.606C264.011 165.318 264.389 165.174 264.845 165.174C265.289 165.174 265.655 165.318 265.943 165.606C266.231 165.882 266.375 166.23 266.375 166.65C266.375 167.07 266.231 167.424 265.943 167.712C265.655 167.988 265.289 168.126 264.845 168.126ZM269.521 168.126C269.065 168.126 268.687 167.988 268.387 167.712C268.099 167.424 267.955 167.07 267.955 166.65C267.955 166.23 268.099 165.882 268.387 165.606C268.687 165.318 269.065 165.174 269.521 165.174C269.965 165.174 270.331 165.318 270.619 165.606C270.907 165.882 271.051 166.23 271.051 166.65C271.051 167.07 270.907 167.424 270.619 167.712C270.331 167.988 269.965 168.126 269.521 168.126ZM274.197 168.126C273.741 168.126 273.363 167.988 273.063 167.712C272.775 167.424 272.631 167.07 272.631 166.65C272.631 166.23 272.775 165.882 273.063 165.606C273.363 165.318 273.741 165.174 274.197 165.174C274.641 165.174 275.007 165.318 275.295 165.606C275.583 165.882 275.727 166.23 275.727 166.65C275.727 167.07 275.583 167.424 275.295 167.712C275.007 167.988 274.641 168.126 274.197 168.126Z" fill="#0D114F"/>
<circle opacity="0.1" cx="143.5" cy="67.5" r="67.5" fill="url(#paint0_linear_37:1689)"/>
<path fill-rule="evenodd" clip-rule="evenodd" d="M140.423 67.5012C128.644 67.5012 119.094 75.8799 119.094 86.2155V86.2633C119.094 96.5989 128.644 104.978 140.423 104.978H171.877C173.052 104.978 174.204 104.894 175.328 104.734L181.422 109.898C181.587 110.039 181.809 110.117 182.039 110.117C182.53 110.117 182.928 109.768 182.928 109.338L182.928 102.273C189.089 98.9914 193.206 93.0491 193.206 86.2633V86.2155C193.206 75.8799 183.656 67.5012 171.877 67.5012H140.423Z" fill="#1D4885"/>
<path d="M145.596 22.6649H100.685C83.8573 22.6649 70.2156 34.6344 70.2156 49.3996C70.2156 64.1648 83.8573 76.1343 100.685 76.1343H145.596C162.424 76.1343 176.066 64.1648 176.066 49.3996C176.066 34.6344 162.424 22.6649 145.596 22.6649Z" fill="url(#paint1_linear_37:1689)"/>
<path fill-rule="evenodd" clip-rule="evenodd" d="M84.895 68.3577V82.3535C84.895 82.9688 85.4634 83.4675 86.1646 83.4675C86.4934 83.4675 86.8095 83.3555 87.0461 83.1552L98.7678 73.2316L84.895 68.3577Z" fill="url(#paint2_linear_37:1689)"/>
<path d="M102.748 52.7415C105.465 52.7415 107.668 50.8089 107.668 48.4249C107.668 46.041 105.465 44.1084 102.748 44.1084C100.031 44.1084 97.8289 46.041 97.8289 48.4249C97.8289 50.8089 100.031 52.7415 102.748 52.7415Z" fill="white"/>
<path d="M122.903 52.7415C125.62 52.7415 127.823 50.8089 127.823 48.4249C127.823 46.041 125.62 44.1084 122.903 44.1084C120.186 44.1084 117.983 46.041 117.983 48.4249C117.983 50.8089 120.186 52.7415 122.903 52.7415Z" fill="white"/>
<path d="M143.533 52.7415C146.25 52.7415 148.453 50.8089 148.453 48.4249C148.453 46.041 146.25 44.1084 143.533 44.1084C140.816 44.1084 138.614 46.041 138.614 48.4249C138.614 50.8089 140.816 52.7415 143.533 52.7415Z" fill="white"/>
<defs>
<linearGradient id="paint0_linear_37:1689" x1="237.583" y1="-204.224" x2="136.406" y2="149.495" gradientUnits="userSpaceOnUse">
<stop stop-color="#5498FF"/>
<stop offset="0.515625" stop-color="#428EFF"/>
<stop offset="1" stop-color="#297FFF"/>
</linearGradient>
<linearGradient id="paint1_linear_37:1689" x1="196.909" y1="-58.2221" x2="175.458" y2="90.2381" gradientUnits="userSpaceOnUse">
<stop stop-color="#5498FF"/>
<stop offset="0.515625" stop-color="#428EFF"/>
<stop offset="1" stop-color="#297FFF"/>
</linearGradient>
<linearGradient id="paint2_linear_37:1689" x1="101.5" y1="45.5" x2="89.337" y2="84.5398" gradientUnits="userSpaceOnUse">
<stop stop-color="#5498FF"/>
<stop offset="0.515625" stop-color="#428EFF"/>
<stop offset="1" stop-color="#297FFF"/>
</linearGradient>
</defs>
</svg>
